<?xml version="1.0" encoding="UTF-8" standalone="no"?>
<!-- Created with Inkscape (http://www.inkscape.org/) -->

<svg
   version="1.1"
   id="svg1"
   width="1708.16"
   height="245.2"
   viewBox="0 0 1708.16 245.2"
   xmlns="http://www.w3.org/2000/svg"
   xmlns:svg="http://www.w3.org/2000/svg">
  <defs
     id="defs1" />
  <g
     id="g1">
    <path
       id="path1"
       d="m 6109.41,1789.55 c 293.5,0 586.9,0.2 880.3,-0.09 188.4,0.4 375.6,-63.91 525.5,-177.6 82.3,-64 158.3,-139.7 207.6,-232.4 146.6,-233.91 170.7,-537.605 66.9,-792.804 -23.8,-65.5 -63.8,-122.902 -94.4,-185 -156.6,-223 -423.3,-362.9997 -695.7,-366.699 -297.9,-0.9023 -595.9,-0.1015 -893.7,-0.4023 -0.1,354.1993 -0.2,708.4023 0,1062.6053 139.7,-138.504 278.2,-278.203 417.9,-416.703 8.4,-9.5 21.7,-18.5 18.5,-33.602 0.4,-57 -0.3,-114 0,-171 152.5,-0.101 305.1,0 457.6,-0.101 143.9,-0.5 282.4,81 357.9,202.402 63.7,99.598 79.4,225.301 53.6,339.704 -36,163.5 -177,296.69 -341.1,327.19 -49.3,10.7 -99.9,8.11 -149.9,8.31 -124.9,-0.11 -249.7,0.1 -374.6,-0.11 0.2,-166.2 0.1,-332.39 0.1,-498.594 -145.6,144.899 -290.3,290.594 -436.1,435.304 -1,166.59 -0.2,333.09 -0.4,499.59"
       style="fill:currentColor;fill-opacity:1;fill-rule:evenodd;stroke:none"
       transform="matrix(0.13333333,0,0,-0.13333333,0,245.2)" />
    <path
       id="path2"
       d="m 8744.57,1789.55 c 507.4,0.11 1014.7,0 1522.13,0 0,-145.39 0,-290.8 0,-436.19 -361.93,-0.11 -723.73,0.1 -1085.53,-0.11 -0.2,-16.79 -0.2,-33.59 -0.1,-50.5 -145.4,145.5 -290.9,290.8 -436.4,436.21 -0.1,16.9 -0.2,33.79 -0.1,50.59"
       style="fill:currentColor;fill-opacity:1;fill-rule:evenodd;stroke:none"
       transform="matrix(0.13333333,0,0,-0.13333333,0,245.2)" />
    <path
       id="path3"
       d="m 8744.77,1538.86 c 137.2,-137.2 274.2,-274.5 411.4,-411.81 208.6,0 417.3,0 625.9,0 0,-145.796 0.1,-291.695 0,-437.495 -200.3,0.101 -400.6,0 -600.9,0 0,-220.598 -0.1,-441.098 0.1,-661.6995 -145.6,-0.3008 -291.1,0 -436.6,-0.1992 -0.1,503.6987 -0.1,1007.5037 0.1,1511.2037"
       style="fill:currentColor;fill-opacity:1;fill-rule:evenodd;stroke:none"
       transform="matrix(0.13333333,0,0,-0.13333333,0,245.2)" />
    <path
       id="path4"
       d="m 8079.99,1789.55 c 145.4,0.11 290.9,0 436.4,0.11 0.1,-218.3 0,-436.61 0,-654.91 -144.4,145.3 -290.3,289.21 -433.4,435.5 -7.4,72.11 -0.9,146.41 -3,219.3"
       style="fill:currentColor;fill-opacity:1;fill-rule:evenodd;stroke:none"
       transform="matrix(0.13333333,0,0,-0.13333333,0,245.2)" />
    <path
       id="path5"
       d="m 8079.99,1375.05 c 145.5,-145.3 290.2,-291.5 436.1,-436.495 0.9,-303.598 0,-607.098 0.4,-910.6995 -145.5,-0.3008 -291,-0.1016 -436.5,-0.1016 -0.1,449.1011 -0.1,898.2031 0,1347.2961"
       style="fill:currentColor;fill-opacity:1;fill-rule:evenodd;stroke:none"
       transform="matrix(0.13333333,0,0,-0.13333333,0,245.2)" />
    <path
       id="path6"
       d="m 661.973,1801.86 c 185.898,54 389.297,46.89 570.297,-22.4 233.3,-87.6 429.7,-273 525,-504 25.8,-60.5 41.8,-124.5 56.7,-188.5 -153.9,0.29 -307.7,-0.1 -461.6,0.29 -45.5,135.91 -160.8,245 -297.7,286.21 -120.498,35.7 -255.9,23.09 -365.299,-39.91 -97.101,-52.69 -165.101,-144.69 -211.301,-243 -110.601,110.61 -221,221.31 -331.601,331.81 120,182 305.101,320.6 515.504,379.5"
       style="fill:currentColor;fill-opacity:1;fill-rule:evenodd;stroke:none"
       transform="matrix(0.13333333,0,0,-0.13333333,0,245.2)" />
    <path
       id="path7"
       d="m 6.67188,1017.36 c 8.89842,88.89 34.39842,174.8 63.19922,259 125.8009,-126.31 252.3989,-251.7 377.8009,-378.403 5.199,-149.801 90.098,-294 219.398,-370 117.102,-71.5 266.899,-82.203 394.9,-34.801 114.2,39.301 211,126.598 261.4,236.301 8.1,17.398 19.3,41.098 42.6,36.898 149.3,0.301 298.7,0 448.1,0.102 -41,-206.5 -144.3,-404.203 -308.6,-538.801 C 1355.17,97.8555 1160.87,21.6563 962.871,11.1563 791.07,2.25391 616.07,40.3555 466.07,125.156 293.57,221.855 152.969,375.457 75.2695,557.555 13.3711,701.457 -10.0313,861.656 6.67188,1017.36"
       style="fill:currentColor;fill-opacity:1;fill-rule:evenodd;stroke:none"
       transform="matrix(0.13333333,0,0,-0.13333333,0,245.2)" />
    <path
       id="path8"
       d="m 2619.26,1404.16 c 85.2,139.3 169.9,279 255.2,418.3 362.7,-599.41 725.5,-1198.804 1087.9,-1798.4053 -169.7,-0.1992 -339.4,-0.0977 -509.1,-0.0977 -278.1,460 -556.1,920 -834,1380.203"
       style="fill:currentColor;fill-opacity:1;fill-rule:evenodd;stroke:none"
       transform="matrix(0.13333333,0,0,-0.13333333,0,245.2)" />
    <path
       id="path9"
       d="m 2539.06,1269.66 c 85.1,-140.7 169.6,-281.703 254.4,-422.605 -166.2,-273.098 -332.4,-546.301 -498.8,-819.3987 -169.7,0.0976 -339.5,0.0976 -509.2,0.0976 251,414.0001 502.8,827.7031 753.6,1241.9061"
       style="fill:currentColor;fill-opacity:1;fill-rule:evenodd;stroke:none"
       transform="matrix(0.13333333,0,0,-0.13333333,0,245.2)" />
    <path
       id="path10"
       d="m 4111.13,1785.86 c 393.4,0 786.9,0 1180.3,-0.11 142.7,-0.89 284.4,-61.79 379.2,-169.2 98.4,-110.3 146,-264.09 125.1,-410.69 -11.8,-165.11 -100.3,-322.606 -236.4,-417.005 -94.7,-67.199 -211,-100.699 -326.7,-99.898 226.9,-222.902 453.9,-445.703 680.5,-668.9023 -225.8,0.5 -451.7,-0.3008 -677.5,0.4023 -374.4,372.898 -749.9,744.699 -1122.1,1119.593 -5.7,214.81 -0.8,430.61 -2.4,645.81 z m 469.4,-458.81 c 69.1,-68.89 138.6,-137.5 207.6,-206.69 138.9,-0.2 277.9,-0.4 416.8,0.1 41.52,0.4 92,-0.71 120.4,30.09 19.1,42.7 35.5,88.31 31.7,135.81 0.1,16 -2.2,44.1 -24.7,40.6 -250.6,0.4 -501.2,0 -751.8,0.09 z m -462.3,-403.296 c 145.9,-145.699 291.7,-291.598 437.4,-437.399 0,-161.601 -0.1,-323.199 0.1,-484.80031 -145.9,-0.19922 -291.7,-0.09766 -437.5,0 0.1,307.40231 -0.1,614.80031 0,922.19931"
       style="fill:currentColor;fill-opacity:1;fill-rule:evenodd;stroke:none"
       transform="matrix(0.13333333,0,0,-0.13333333,0,245.2)" />
    <path
       id="path11"
       d="m 10429.2,1793.96 c 202.1,-0.1 404.3,0.09 606.5,-0.1 13.3,2.39 21,-10.5 30,-17.9 185.1,-186.6 371.5,-372 557.1,-558.21 192,191.91 383.5,384.41 575.6,576.3 203.7,-0.19 407.5,0 611.3,-0.09 -323.8,-323.91 -647.3,-648.3 -971.4,-971.905 -0.7,-144.399 0,-288.801 -0.3,-433.098 -124.7,114.898 -241.1,238.5 -362.1,357.199 -348.9,349.204 -698,698.304 -1046.7,1047.804"
       style="fill:currentColor;fill-opacity:1;fill-rule:evenodd;stroke:none"
       transform="matrix(0.13333333,0,0,-0.13333333,0,245.2)" />
    <path
       id="path12"
       d="m 11404.3,621.156 c 146,-145.601 291.7,-291.601 437.4,-437.601 -0.2,-51.899 -0.2,-103.8011 0,-155.6995 -145.9,-0.3008 -291.7,-0.1016 -437.5,-0.1016 0,197.8011 -0.1,395.6011 0.1,593.4021"
       style="fill:currentColor;fill-opacity:1;fill-rule:evenodd;stroke:none"
       transform="matrix(0.13333333,0,0,-0.13333333,0,245.2)" />
  </g>
</svg>